<svg xmlns="http://www.w3.org/2000/svg" xml:space="preserve" fill-rule="evenodd" stroke-linejoin="round" stroke-width="28.2" preserveAspectRatio="xMidYMid" version="1.2" viewBox="27384 16750 17494 4982"><g class="Page"><g class="com.sun.star.drawing.PolyPolygonShape"><path fill="none" d="M34313 17335h1018v1549h-1018z" class="BoundingBox"/><path fill="#0A4CC7" d="M35330 17335v498l-383 1050h-252l-382-1050v-498h265v451l243 670 244-670v-451h265Z"/></g><g class="com.sun.star.drawing.PolyPolygonShape"><path fill="none" d="M35903 17335h1020v1550h-1020z" class="BoundingBox"/><path fill="#0A4CC7" d="M36546 17600v1018h376v265h-1018v-265h377v-1018h-377v-265h1018v265h-376Z"/></g><g class="com.sun.star.drawing.PolyPolygonShape"><path fill="none" d="M37494 17335h1020v1550h-1020z" class="BoundingBox"/><path fill="#0A4CC7" d="M38513 18618v265h-1018v-1548h265v1283h753Z"/></g><g class="com.sun.star.drawing.PolyPolygonShape"><path fill="none" d="M39085 17335h1020v1550h-1020z" class="BoundingBox"/><path fill="#0A4CC7" d="M40104 17335v1548h-358l-394-1043v1043h-266v-1548h359l394 1044v-1044h265Z"/></g><g class="com.sun.star.drawing.PolyPolygonShape"><path fill="none" d="M40677 17335h1019v1550h-1019z" class="BoundingBox"/><path fill="#0A4CC7" d="M41319 17600v1018h376v265h-1018v-265h376v-1018h-376v-265h1018v265h-376Z"/></g><g class="com.sun.star.drawing.ClosedBezierShape"><path fill="none" d="M42268 17335h1019v1549h-1019z" class="BoundingBox"/><path fill="#0A4CC7" d="M43286 18461c0 230-189 422-421 422h-177a421 421 0 0 1-419-422v-1126h265v1126c0 84 71 155 154 155h177c87 0 155-71 155-155v-1126h266v1126Z"/></g><g class="com.sun.star.drawing.ClosedBezierShape"><path fill="none" d="M43860 17335h1018v1549h-1018z" class="BoundingBox"/><path fill="#0A4CC7" d="M44125 18372v78c0 93 76 168 169 168h148c102 0 170-62 170-146 0-279-730-312-730-748 0-230 181-389 434-389h104c241 0 435 194 435 433v56h-265v-56c0-93-75-168-170-168h-104c-108 0-169 46-169 124 0 193 730 279 730 748 0 232-187 411-435 411h-148a433 433 0 0 1-434-433v-78h265Z"/></g><g class="com.sun.star.drawing.PolyPolygonShape"><path fill="none" d="M34313 19578h1018v1549h-1018z" class="BoundingBox"/><path fill="#0A4CC7" d="M35330 19843h-376v1283h-266v-1283h-375v-265h1017v265Z"/></g><g class="com.sun.star.drawing.PolyPolygonShape"><path fill="none" d="M35903 19578h1020v1549h-1020z" class="BoundingBox"/><path fill="#0A4CC7" d="M36170 19843v338h663v266h-663v413h752v266h-1018v-1548h1018v265h-752Z"/></g><g class="com.sun.star.drawing.ClosedBezierShape"><path fill="none" d="M37494 19578h1020v1549h-1020z" class="BoundingBox"/><path fill="#0A4CC7" d="M38247 19998c0-89-66-155-155-155h-177c-86 0-155 69-155 155v705c0 84 71 155 155 155h177c87 0 155-71 155-155v-122h266v122c0 233-188 423-421 423h-177a424 424 0 0 1-420-423v-705c0-232 190-420 420-420h177c235 0 421 186 421 420v121h-266v-121Z"/></g><g class="com.sun.star.drawing.PolyPolygonShape"><path fill="none" d="M39085 19578h1020v1549h-1020z" class="BoundingBox"/><path fill="#0A4CC7" d="M40104 19578v1548h-265v-686h-487v686h-266v-1548h266v597h487v-597h265Z"/></g><g class="com.sun.star.drawing.PolyPolygonShape"><path fill="none" d="M27384 16750h999v4087h-999z" class="BoundingBox"/><path fill="#0A4CC7" d="m28382 16750-998 997v2094l998 995v-4086Z"/></g><g class="com.sun.star.drawing.PolyPolygonShape"><path fill="none" d="M29911 16795h2410v4042h-2410z" class="BoundingBox"/><path fill="#0A4CC7" d="M32320 16795h-1448l-961 896h1462v3145l947-946v-3095Z"/></g><g class="com.sun.star.drawing.PolyPolygonShape"><path fill="none" d="M28380 20834h2994v898h-2994z" class="BoundingBox"/><path fill="#0A4CC7" d="m28381 20835 902 896h1192l898-896h-2992Z"/></g></g></svg>